<?xml version="1.0" encoding="utf-8"?>
<!-- Generator: Adobe Illustrator 24.0.0, SVG Export Plug-In . SVG Version: 6.00 Build 0)  -->
<svg version="1.1" id="Layer_1" xmlns="http://www.w3.org/2000/svg" xmlns:xlink="http://www.w3.org/1999/xlink" x="0px" y="0px"
	 viewBox="0 0 816.93 236.48" style="enable-background:new 0 0 816.93 236.48;" xml:space="preserve">
<style type="text/css">
	.st0{fill:#FED600;}
	.st1{clip-path:url(#XMLID_2_);fill:url(#SVGID_1_);}
	.st2{fill:url(#SVGID_4_);}
	.st3{fill:url(#SVGID_5_);}
	.st4{fill:url(#SVGID_6_);}
	.st5{fill:#424143;}
	.st6{fill-rule:evenodd;clip-rule:evenodd;fill:#424143;}
</style>
<g>
	<g>
		<path id="XMLID_41_" class="st0" d="M164.29,142.28h-24.07c-1.92,0-3.48-1.56-3.48-3.48v0c0-1.92,1.56-3.48,3.48-3.48h24.07
			c1.92,0,3.48,1.56,3.48,3.48v0C167.77,140.72,166.21,142.28,164.29,142.28z"/>
		<path id="XMLID_39_" class="st0" d="M210.88,142.28h-32.91c-1.92,0-3.48-1.56-3.48-3.48v0c0-1.92,1.56-3.48,3.48-3.48h32.91
			c1.92,0,3.48,1.56,3.48,3.48v0C214.36,140.72,212.8,142.28,210.88,142.28z"/>
	</g>
	<path id="XMLID_38_" class="st0" d="M210.88,127.09h-60.24c-1.92,0-3.48-1.56-3.48-3.48v0c0-1.92,1.56-3.48,3.48-3.48h60.24
		c1.92,0,3.48,1.56,3.48,3.48v0C214.36,125.53,212.8,127.09,210.88,127.09z"/>
	<g>
		<path id="XMLID_37_" class="st0" d="M210.88,111.9h-60.24c-1.92,0-3.48-1.56-3.48-3.48v0c0-1.92,1.56-3.48,3.48-3.48h60.24
			c1.92,0,3.48,1.56,3.48,3.48v0C214.36,110.34,212.8,111.9,210.88,111.9z"/>
		<path id="XMLID_36_" class="st0" d="M141.36,111.9h-4.09c-1.92,0-3.48-1.56-3.48-3.48v0c0-1.92,1.56-3.48,3.48-3.48h4.09
			c1.92,0,3.48,1.56,3.48,3.48v0C144.84,110.34,143.28,111.9,141.36,111.9z"/>
	</g>
	<g>
		<g>
			<defs>
				<path id="XMLID_35_" d="M116.28,81.34c0,3.09,2.51,5.59,5.6,5.58l110.15-0.49c2.27,0,4.28,1.08,5.53,2.97
					c1.25,1.89,1.46,4.17,0.57,6.25l-27.07,63.53h-13.22c7.19,0,13.38,4.41,15.99,10.66h4.28l29.83-70.01
					c2.57-6.02,1.55-12.99-2.8-18.07c-3.34-3.9-8.34-6.01-13.48-6.01l-109.8,0C118.78,75.76,116.28,78.26,116.28,81.34L116.28,81.34
					z"/>
			</defs>
			<use xlink:href="#XMLID_35_"  style="overflow:visible;fill:#FED600;"/>
			<clipPath id="XMLID_2_">
				<use xlink:href="#XMLID_35_"  style="overflow:visible;"/>
			</clipPath>
			<linearGradient id="SVGID_1_" gradientUnits="userSpaceOnUse" x1="203.3564" y1="169.9541" x2="220.2628" y2="150.8561">
				<stop  offset="0" style="stop-color:#231F20"/>
				<stop  offset="0.1072" style="stop-color:#231F20;stop-opacity:0.8536"/>
				<stop  offset="0.7324" style="stop-color:#231F20;stop-opacity:0"/>
			</linearGradient>
			<path class="st1" d="M232.29,137.03l-13.98,32.82h-4.27c-2.62-6.26-8.8-10.66-16-10.66h13.22l9.44-22.15H232.29z"/>
		</g>
		<path class="st0" d="M197.83,159.18h-50.31c7.19,0,13.38,4.41,15.99,10.66h18.32h15.99c3.67,0,6.66,2.99,6.66,6.66
			c0,3.67-2.99,6.66-6.66,6.66c-3.67,0-6.66-2.99-6.66-6.66c0-3.67,2.99-6.66,6.66-6.66h-15.99c-0.86,2.05-1.33,4.3-1.33,6.66
			c0,9.55,7.77,17.33,17.33,17.33c9.55,0,17.33-7.77,17.33-17.33c0-2.36-0.48-4.61-1.33-6.66
			C211.21,163.59,205.03,159.18,197.83,159.18z"/>
		<g>
			<defs>
				<path id="SVGID_2_" d="M147.52,159.18h-11.84l-27.22-79.85l-7.95-22.76L75.24,45.31c-2.69-1.2-5.84,0.01-7.04,2.7
					c-1.2,2.69,0.01,5.84,2.7,7.04l21.06,9.39l6.42,18.37l29.67,87.03h3.48h15.99c3.67,0,6.66,2.99,6.66,6.66
					c0,3.67-2.99,6.66-6.66,6.66c-3.67,0-6.66-2.99-6.66-6.66c0-3.67,2.99-6.66,6.66-6.66h-15.99c-0.86,2.05-1.33,4.3-1.33,6.66
					c0,9.55,7.77,17.33,17.33,17.33c9.55,0,17.33-7.77,17.33-17.33c0-2.36-0.48-4.61-1.33-6.66
					C160.9,163.59,154.72,159.18,147.52,159.18z"/>
			</defs>
			<use xlink:href="#SVGID_2_"  style="overflow:visible;fill:#FED600;"/>
			<clipPath id="SVGID_3_">
				<use xlink:href="#SVGID_2_"  style="overflow:visible;"/>
			</clipPath>
		</g>
	</g>
	<linearGradient id="SVGID_4_" gradientUnits="userSpaceOnUse" x1="139.1481" y1="163.9872" x2="138.835" y2="186.8421">
		<stop  offset="0.0386" style="stop-color:#231F20"/>
		<stop  offset="0.1745" style="stop-color:#231F20;stop-opacity:0.8587"/>
		<stop  offset="1" style="stop-color:#231F20;stop-opacity:0"/>
	</linearGradient>
	<path class="st2" d="M147.53,183.18v10.66c-9.56,0-17.33-7.78-17.33-17.33c0-2.36,0.48-4.61,1.34-6.66h16
		c-3.68,0-6.67,2.99-6.67,6.66C140.86,180.19,143.85,183.18,147.53,183.18z"/>
	<linearGradient id="SVGID_5_" gradientUnits="userSpaceOnUse" x1="187.2372" y1="165.9769" x2="190.8385" y2="181.2825">
		<stop  offset="0" style="stop-color:#231F20"/>
		<stop  offset="0.1413" style="stop-color:#231F20;stop-opacity:0.8587"/>
		<stop  offset="1" style="stop-color:#231F20;stop-opacity:0"/>
	</linearGradient>
	<path class="st3" d="M197.93,183.18v10.66h-0.1c-9.56,0-17.33-7.78-17.33-17.33c0-2.36,0.48-4.61,1.33-6.66h16
		c-3.68,0-6.66,2.99-6.66,6.66c0,3.68,2.99,6.67,6.66,6.67H197.93z"/>
	<radialGradient id="SVGID_6_" cx="147.1086" cy="176.4823" r="33.5425" gradientUnits="userSpaceOnUse">
		<stop  offset="0.0785" style="stop-color:#231F20"/>
		<stop  offset="0.2027" style="stop-color:#231F20;stop-opacity:0.8653"/>
		<stop  offset="1" style="stop-color:#231F20;stop-opacity:0"/>
	</radialGradient>
	<path class="st4" d="M181.84,159.18v10.66h-18.32c-2.62-6.26-8.79-10.66-15.99-10.66H181.84z"/>
</g>
<g>
	<g>
		<path class="st5" d="M564.52,148.69h-11.73l-0.27-2.88c-2.01,2.37-4.89,3.55-8.65,3.55c-2.28,0-4.32-0.53-6.13-1.58
			c-1.81-1.05-3.13-2.46-3.95-4.22c-0.83-1.76-1.24-3.47-1.24-5.13c0-2.41,0.51-4.29,1.54-5.63c1.03-1.34,2.59-2.35,4.69-3.02
			c2.64-0.85,6.97-1.38,13-1.61v-1.21c0-1.07-0.2-1.88-0.6-2.41c-0.49-0.67-1.63-1.01-3.42-1.01c-2.68,0-6.32,0.6-10.92,1.81
			l-2.01-8.38c2.41-0.94,5.18-1.69,8.31-2.24c3.13-0.56,5.9-0.84,8.31-0.84c2.1,0,3.96,0.2,5.6,0.6c1.63,0.4,2.96,1.04,3.99,1.91
			c1.03,0.87,1.81,1.87,2.35,2.98c0.76,1.57,1.14,4.45,1.14,8.64V148.69z M551.92,139.77v-4.89c-1.83,0.09-3.51,0.34-5.03,0.74
			c-0.58,0.18-1.06,0.5-1.44,0.97c-0.38,0.47-0.57,1.04-0.57,1.71c0,0.94,0.28,1.65,0.84,2.14c0.56,0.49,1.28,0.74,2.18,0.74
			C549.37,141.18,550.71,140.71,551.92,139.77z"/>
		<path class="st5" d="M605.13,148.69h-12.67v-3.42c-1.74,1.56-3.54,2.68-5.39,3.35c-1.85,0.67-3.85,1.01-6,1.01
			c-1.3,0-2.66-0.2-4.09-0.6c-1.43-0.4-2.66-1.15-3.69-2.25c-1.03-1.09-1.63-2.4-1.81-3.92c-0.27-2.01-0.4-4.8-0.4-8.38v-18.96
			l12.8-1.61v18.9c0,2.59,0.18,4.31,0.54,5.16c0.49,1.07,1.59,1.61,3.28,1.61c1.25,0,2.79-0.29,4.62-0.87v-23.19l12.8-1.61V148.69z"
			/>
		<path class="st5" d="M624.77,148.69h-12.8v-33.17l12.67-1.61v4.42c1.79-1.38,3.79-2.48,6-3.28c2.21-0.8,4.28-1.21,6.2-1.21
			c2.59,0,4.66,0.59,6.2,1.78c1.54,1.18,2.45,2.83,2.71,4.93c0.18,1.34,0.27,4.27,0.27,8.78v19.37h-12.8V131.4
			c0-3.22-0.16-5.18-0.47-5.9c-0.45-1.07-1.47-1.61-3.08-1.61c-1.43,0-3.06,0.29-4.89,0.87V148.69z"/>
		<path class="st5" d="M650.43,147.61l2.28-8.98c2.05,0.63,3.99,1.12,5.8,1.47c1.81,0.36,3.85,0.54,6.13,0.54
			c1.79,0,2.68-0.63,2.68-1.88c0-1.03-0.6-1.68-1.81-1.94l-4.82-1.21c-3.44-0.85-5.84-2.16-7.2-3.92c-1.36-1.76-2.04-4.05-2.04-6.87
			c0-1.43,0.31-2.8,0.94-4.12c0.63-1.32,1.59-2.49,2.88-3.52c1.29-1.03,2.98-1.83,5.06-2.41c2.08-0.58,4.48-0.87,7.2-0.87
			c1.83,0,3.84,0.15,6.03,0.44c2.19,0.29,4.06,0.73,5.63,1.31l-2.48,8.64c-3.53-0.98-6.99-1.47-10.39-1.47
			c-1.61,0-2.41,0.56-2.41,1.68c0,0.54,0.16,0.94,0.47,1.21c0.31,0.27,0.83,0.47,1.54,0.6l5.03,1.14c3.17,0.71,5.53,1.89,7.07,3.52
			s2.31,3.99,2.31,7.07c0,2.28-0.61,4.28-1.84,6c-1.23,1.72-3.04,3.08-5.43,4.09c-2.39,1-5.44,1.51-9.15,1.51
			C659.52,149.62,655.03,148.95,650.43,147.61z"/>
		<path class="st5" d="M697.95,142.59c0,1.7-0.38,3.09-1.14,4.19c-0.76,1.1-1.69,1.82-2.78,2.18c-1.1,0.36-2.13,0.54-3.12,0.54
			c-1.21,0-2.34-0.28-3.38-0.84c-1.05-0.56-1.88-1.33-2.48-2.31c-0.6-0.98-0.9-2.23-0.9-3.75c0-2.32,0.69-4.1,2.08-5.33
			c1.38-1.23,3.02-1.84,4.89-1.84c1.88,0,3.48,0.57,4.82,1.71C697.28,138.26,697.95,140.09,697.95,142.59z"/>
		<path class="st5" d="M716.31,148.69h-12.8V100.3l12.8-1.61V148.69z"/>
		<path class="st5" d="M747,148.69h-14.07l-13-33.84h14.01c2.1,6.17,4.29,13.16,6.57,20.98c1.25-4.83,3.26-11.82,6.03-20.98H760
			L747,148.69z"/>
		<path class="st6" d="M514.37,168.22c0,0,12.92,0,12.92-13.47v-38.27l-12.92,1.62V168.22z"/>
		<path class="st6" d="M520.86,113.84c1.94,0,3.48-0.52,4.63-1.55c1.15-1.04,1.73-2.57,1.73-4.6c0-4.1-2.03-6.16-6.09-6.16
			c-1.89,0-3.44,0.51-4.63,1.52c-1.19,1.02-1.79,2.56-1.79,4.64c0,2.07,0.58,3.62,1.72,4.63
			C517.58,113.34,519.06,113.84,520.86,113.84"/>
	</g>
</g>
<g>
	<g>
		<path class="st5" d="M292.05,148.89h-14.21l-13.12-34.16h14.14c2.12,6.22,4.33,13.28,6.63,21.17c1.26-4.87,3.29-11.93,6.09-21.17
			h13.6L292.05,148.89z"/>
		<path class="st5" d="M340.76,145.78c-2.62,1.4-5.28,2.42-7.98,3.08c-2.71,0.65-5.57,0.98-8.59,0.98c-2.71,0-5.13-0.42-7.27-1.25
			c-2.14-0.83-3.92-2.02-5.34-3.55c-1.42-1.53-2.5-3.37-3.25-5.51c-0.74-2.14-1.12-4.5-1.12-7.07c0-3.02,0.46-5.72,1.39-8.08
			c0.92-2.37,2.2-4.33,3.82-5.89c1.62-1.56,3.51-2.73,5.65-3.52c2.14-0.79,4.41-1.18,6.8-1.18c3.43,0,6.36,0.55,8.79,1.66
			c2.44,1.11,4.26,2.9,5.48,5.38c1.22,2.48,1.83,6.13,1.83,10.96c0,1.17-0.07,2.41-0.2,3.72h-21.04l0.14,1.01
			c0.63,2.62,2.84,3.92,6.63,3.92c1.71,0,3.61-0.18,5.68-0.54c2.07-0.36,3.88-0.86,5.41-1.49L340.76,145.78z M329.4,127.71
			l0.07-1.69c0-2.57-1.49-3.86-4.46-3.86c-1.67,0-2.91,0.51-3.72,1.52c-0.81,1.01-1.22,2.36-1.22,4.02H329.4z"/>
		<path class="st5" d="M359.23,148.89h-12.92V115.4l12.92-1.62V148.89z M359.16,104.98c0,1.99-0.57,3.51-1.73,4.57
			c-1.15,1.06-2.7,1.59-4.63,1.59c-1.76,0-3.23-0.51-4.4-1.52c-1.17-1.01-1.76-2.56-1.76-4.63c0-1.53,0.36-2.78,1.08-3.75
			c0.72-0.97,1.58-1.61,2.57-1.93c0.99-0.31,1.92-0.47,2.77-0.47c1.85,0,3.33,0.5,4.43,1.49
			C358.61,101.31,359.16,102.86,359.16,104.98z"/>
		<path class="st5" d="M378.91,148.89h-12.92v-48.84l12.92-1.62v25.5l8.32-9.2h15.29l-11.7,12.45l11.84,21.72h-14.61l-6.29-12.18
			l-2.84,2.77V148.89z"/>
		<path class="st5" d="M437.03,148.89h-11.84l-0.27-2.91c-2.03,2.39-4.94,3.59-8.73,3.59c-2.3,0-4.36-0.53-6.19-1.59
			c-1.83-1.06-3.16-2.48-3.99-4.26c-0.84-1.78-1.25-3.51-1.25-5.18c0-2.44,0.52-4.33,1.56-5.68c1.04-1.35,2.61-2.37,4.74-3.04
			c2.66-0.86,7.04-1.4,13.12-1.62v-1.22c0-1.08-0.2-1.89-0.61-2.44c-0.5-0.68-1.65-1.01-3.45-1.01c-2.71,0-6.38,0.61-11.03,1.83
			l-2.03-8.46c2.44-0.95,5.23-1.7,8.39-2.27c3.16-0.56,5.95-0.85,8.39-0.85c2.12,0,4,0.2,5.65,0.61c1.65,0.41,2.99,1.05,4.03,1.93
			c1.04,0.88,1.83,1.88,2.37,3.01c0.77,1.58,1.15,4.49,1.15,8.73V148.89z M424.31,139.89v-4.94c-1.85,0.09-3.54,0.34-5.07,0.74
			c-0.59,0.18-1.07,0.51-1.45,0.98c-0.38,0.47-0.57,1.05-0.57,1.73c0,0.95,0.28,1.67,0.85,2.16c0.56,0.5,1.3,0.74,2.2,0.74
			C421.74,141.31,423.09,140.84,424.31,139.89z"/>
		<path class="st5" d="M456.71,148.89h-12.92v-48.84l12.92-1.62V148.89z"/>
		<path class="st5" d="M461.31,147.81l2.3-9.07c2.07,0.63,4.03,1.13,5.85,1.49c1.83,0.36,3.89,0.54,6.19,0.54
			c1.8,0,2.71-0.63,2.71-1.89c0-1.04-0.61-1.69-1.83-1.96l-4.87-1.22c-3.47-0.86-5.9-2.18-7.27-3.96c-1.38-1.78-2.06-4.09-2.06-6.93
			c0-1.44,0.31-2.83,0.95-4.16c0.63-1.33,1.6-2.51,2.91-3.55c1.31-1.04,3.01-1.85,5.11-2.43s4.52-0.88,7.27-0.88
			c1.85,0,3.88,0.15,6.09,0.44c2.21,0.29,4.1,0.73,5.68,1.32l-2.5,8.73c-3.56-0.99-7.06-1.49-10.49-1.49
			c-1.62,0-2.44,0.56-2.44,1.69c0,0.54,0.16,0.95,0.47,1.22c0.32,0.27,0.83,0.47,1.56,0.61l5.07,1.15c3.2,0.72,5.58,1.91,7.14,3.55
			c1.56,1.65,2.33,4.03,2.33,7.14c0,2.3-0.62,4.32-1.86,6.05c-1.24,1.74-3.07,3.11-5.48,4.13c-2.41,1.01-5.49,1.52-9.23,1.52
			C470.49,149.83,465.96,149.16,461.31,147.81z"/>
		<path class="st5" d="M509.28,142.73c0,1.71-0.38,3.12-1.15,4.23c-0.77,1.11-1.7,1.84-2.81,2.2c-1.11,0.36-2.15,0.54-3.15,0.54
			c-1.22,0-2.36-0.28-3.42-0.85c-1.06-0.56-1.89-1.34-2.5-2.33c-0.61-0.99-0.91-2.25-0.91-3.79c0-2.34,0.7-4.14,2.1-5.38
			c1.4-1.24,3.04-1.86,4.94-1.86c1.89,0,3.52,0.58,4.87,1.72C508.6,138.37,509.28,140.21,509.28,142.73z"/>
	</g>
</g>
</svg>
